<svg width="37" height="37" viewBox="0 0 37 37" fill="none" xmlns="http://www.w3.org/2000/svg">
<rect x="0.5" y="0.5" width="36" height="36" rx="10.5" stroke="#FE796D"/>
<path d="M6.75391 18.0566C6.89863 19.0205 7.83379 19.491 8.80879 19.5098C10.5549 19.542 13.8561 19.5859 19 19.5859C24.1445 19.5859 27.4451 19.542 29.1912 19.5098C30.1662 19.491 31.1014 19.0205 31.2467 18.0566C31.2818 17.8182 31.3047 17.5469 31.3047 17.2422C31.3047 16.9375 31.2824 16.6662 31.2461 16.4277C31.1014 15.4639 30.1662 14.9934 29.1912 14.9746C27.4451 14.943 24.1445 14.8984 19 14.8984C13.8555 14.8984 10.5549 14.9424 8.80879 14.9746C7.83379 14.9934 6.89863 15.4639 6.75332 16.4277C6.71875 16.6662 6.69531 16.9375 6.69531 17.2422C6.69531 17.5469 6.71758 17.8182 6.75391 18.0566Z" stroke="#14323E" stroke-linecap="round" stroke-linejoin="round"/>
<path d="M8.68518 19.5045C8.94182 21.6912 9.42874 25.1641 10.2397 28.5643C10.3886 29.2013 10.732 29.7763 11.2223 30.2095C11.7125 30.6427 12.3254 30.9126 12.976 30.9819C14.4502 31.1401 16.5678 31.3047 18.9994 31.3047C21.4323 31.3047 23.5492 31.1406 25.0229 30.9819C25.6735 30.9127 26.2866 30.6428 26.777 30.2096C27.2674 29.7765 27.6108 29.2014 27.7598 28.5643C28.5707 25.1641 29.0576 21.6912 29.3143 19.5045" stroke="#14323E" stroke-linecap="round" stroke-linejoin="round"/>
<path d="M22.515 8.59492C22.5033 9.53242 21.7416 10.1699 20.8041 10.1916C20.326 10.2033 19.7277 10.2109 19 10.2109C18.2734 10.2109 17.6746 10.2027 17.1953 10.1916C16.2578 10.1699 15.4961 9.53242 15.4849 8.59492C15.4839 8.50039 15.4839 8.40586 15.4849 8.31133C15.4967 7.37383 16.2584 6.73633 17.1959 6.71465C17.674 6.70293 18.2722 6.69531 19 6.69531C19.7265 6.69531 20.3254 6.70352 20.8047 6.71465C21.7422 6.73633 22.5039 7.37383 22.515 8.31133C22.5161 8.40586 22.5161 8.50039 22.515 8.59492Z" stroke="#14323E" stroke-linecap="round" stroke-linejoin="round"/>
<path d="M14.3125 23.1016L14.8984 27.2031" stroke="#14323E" stroke-linecap="round" stroke-linejoin="round"/>
<path d="M23.6875 23.1016L23.1016 27.2031" stroke="#14323E" stroke-linecap="round" stroke-linejoin="round"/>
<path d="M19 23.1016V27.2031" stroke="#14323E" stroke-linecap="round" stroke-linejoin="round"/>
<path d="M15.4844 8.45312H13.7752C13.01 8.45312 12.2939 8.8252 11.8867 9.47266C11.1613 10.6258 9.97949 12.6408 9.03906 14.8984" stroke="#14323E" stroke-linecap="round" stroke-linejoin="round"/>
<path d="M22.5156 8.45312H24.2248C24.99 8.45312 25.7061 8.8252 26.1133 9.47266C26.8387 10.6258 28.0205 12.6408 28.9609 14.8984" stroke="#14323E" stroke-linecap="round" stroke-linejoin="round"/>
</svg>
