<svg width="117" height="65" viewBox="0 0 117 65" fill="none" xmlns="http://www.w3.org/2000/svg">
<path d="M46.916 26.26C45.0613 26.26 43.51 25.506 42.262 23.998C41.014 22.49 40.39 20.41 40.39 17.758C40.39 15.106 41.0573 13.0087 42.392 11.466C43.7267 9.92333 45.304 9.152 47.124 9.152C48.06 9.152 48.892 9.35133 49.62 9.75C50.348 10.1313 50.712 10.6773 50.712 11.388C50.712 11.7173 50.6253 11.986 50.452 12.194C50.2787 12.402 50.01 12.506 49.646 12.506C49.282 12.506 48.9353 12.3587 48.606 12.064C48.294 11.7693 48.138 11.5007 48.138 11.258C48.138 10.998 48.1813 10.7813 48.268 10.608C47.956 10.4693 47.5833 10.4 47.15 10.4C45.7113 10.4 44.472 11.0933 43.432 12.48C42.4093 13.8667 41.898 15.574 41.898 17.602C41.898 18.8153 42.0887 19.9767 42.47 21.086C42.8687 22.1953 43.458 23.1227 44.238 23.868C45.0353 24.596 45.9973 24.96 47.124 24.96C48.2507 24.96 49.1173 24.5093 49.724 23.608C50.3307 22.6893 50.634 21.6667 50.634 20.54V19.006H47.54C47.1413 19.006 46.942 18.7807 46.942 18.33C46.942 17.8793 47.1413 17.654 47.54 17.654H53.468C53.832 17.654 54.014 17.8793 54.014 18.33C54.014 18.7807 53.832 19.006 53.468 19.006H52.116V20.41C52.116 21.7273 52.3933 22.7153 52.948 23.374C53.2947 23.7207 53.468 24.0067 53.468 24.232C53.468 24.4573 53.3813 24.648 53.208 24.804C53.052 24.9427 52.8787 25.012 52.688 25.012C52.22 25.012 51.7607 24.544 51.31 23.608C51.0153 24.336 50.4867 24.96 49.724 25.48C48.9613 26 48.0253 26.26 46.916 26.26ZM55.6201 16.624H54.9961C54.7615 16.624 54.6441 16.4853 54.6441 16.208C54.6441 15.9307 54.7615 15.792 54.9961 15.792H56.1641C56.3028 15.792 56.3935 15.8187 56.4361 15.872C56.4895 15.9147 56.5161 16.0053 56.5161 16.144V19.728C56.7081 19.344 57.0175 18.9973 57.4441 18.688C57.8708 18.3787 58.3881 18.224 58.9961 18.224C59.6148 18.224 60.0895 18.464 60.4201 18.944C60.7508 19.4133 60.9161 19.9627 60.9161 20.592V25.168H61.3801C61.4975 25.168 61.5881 25.2107 61.6521 25.296C61.7161 25.3813 61.7481 25.4773 61.7481 25.584C61.7481 25.6907 61.7161 25.7867 61.6521 25.872C61.5881 25.9573 61.4975 26 61.3801 26H59.6201C59.3428 26 59.2041 25.8613 59.2041 25.584C59.2041 25.3067 59.3428 25.168 59.6201 25.168H60.0201V20.544C60.0201 20.16 59.9295 19.8027 59.7481 19.472C59.5668 19.1413 59.2575 18.976 58.8201 18.976C58.2335 18.976 57.7001 19.28 57.2201 19.888C56.7508 20.496 56.5161 21.136 56.5161 21.808V25.168H56.9801C57.0975 25.168 57.1935 25.2107 57.2681 25.296C57.3428 25.3813 57.3801 25.4773 57.3801 25.584C57.3801 25.6907 57.3428 25.7867 57.2681 25.872C57.1935 25.9573 57.0975 26 56.9801 26H55.1241C54.8681 26 54.7401 25.8613 54.7401 25.584C54.7401 25.3067 54.8681 25.168 55.1241 25.168H55.6201V16.624ZM63.3523 19.136H62.9363C62.8083 19.136 62.7069 19.0987 62.6323 19.024C62.5576 18.9387 62.5203 18.8427 62.5203 18.736C62.5203 18.4587 62.6589 18.32 62.9363 18.32H63.7363C64.0669 18.32 64.2376 18.464 64.2483 18.752V25.168H64.6483C64.7763 25.168 64.8723 25.2107 64.9363 25.296C65.0109 25.3813 65.0483 25.4773 65.0483 25.584C65.0483 25.8613 64.9149 26 64.6483 26H62.9523C62.8456 26 62.7496 25.9627 62.6643 25.888C62.5896 25.8027 62.5523 25.7067 62.5523 25.6C62.5523 25.4933 62.5896 25.3973 62.6643 25.312C62.7496 25.216 62.8456 25.168 62.9523 25.168L63.3523 25.152V19.136ZM63.5923 15.84C63.8056 15.84 63.9816 15.9093 64.1203 16.048C64.2696 16.1867 64.3443 16.3573 64.3443 16.56C64.3443 16.752 64.2696 16.9173 64.1203 17.056C63.9816 17.1947 63.8056 17.264 63.5923 17.264C63.3896 17.264 63.2136 17.1947 63.0643 17.056C62.9256 16.9173 62.8563 16.752 62.8563 16.56C62.8563 16.3573 62.9256 16.1867 63.0643 16.048C63.2029 15.9093 63.3789 15.84 63.5923 15.84ZM67.3181 19.52C67.8301 18.6987 68.5448 18.288 69.4621 18.288C70.3901 18.288 71.1101 18.656 71.6221 19.392C72.1448 20.128 72.4061 21.072 72.4061 22.224C72.4061 23.3653 72.1395 24.2987 71.6061 25.024C71.0728 25.7493 70.3368 26.112 69.3981 26.112C68.4701 26.112 67.7395 25.7653 67.2061 25.072C66.6835 24.3787 66.4221 23.3973 66.4221 22.128V16.64H66.0061C65.7715 16.64 65.6541 16.5013 65.6541 16.224C65.6541 15.9467 65.7715 15.808 66.0061 15.808H67.7341C67.8515 15.808 67.9421 15.8507 68.0061 15.936C68.0701 16.0107 68.1021 16.1067 68.1021 16.224C68.1021 16.3307 68.0701 16.4267 68.0061 16.512C67.9421 16.5973 67.8515 16.64 67.7341 16.64H67.3181V19.52ZM67.2541 22.32C67.2541 23.312 67.4621 24.0747 67.8781 24.608C68.2941 25.1307 68.7795 25.392 69.3341 25.392C69.8995 25.392 70.3475 25.216 70.6781 24.864C71.2435 24.2667 71.5261 23.3867 71.5261 22.224C71.5261 21.456 71.3821 20.752 71.0941 20.112C70.9448 19.7813 70.7261 19.5147 70.4381 19.312C70.1501 19.1093 69.8141 19.008 69.4301 19.008C68.7581 19.008 68.2248 19.312 67.8301 19.92C67.4461 20.5173 67.2541 21.3173 67.2541 22.32ZM73.667 16.64H73.155C73.027 16.64 72.9257 16.6027 72.851 16.528C72.7763 16.4427 72.739 16.3413 72.739 16.224C72.739 16.096 72.7763 15.9947 72.851 15.92C72.9257 15.8453 73.027 15.808 73.155 15.808H74.067C74.2483 15.808 74.3763 15.84 74.451 15.904C74.5257 15.968 74.563 16.0853 74.563 16.256V25.168H74.963C75.091 25.168 75.187 25.2107 75.251 25.296C75.3257 25.3813 75.363 25.4773 75.363 25.584C75.363 25.8613 75.2297 26 74.963 26H73.267C73.1497 26 73.0537 25.9627 72.979 25.888C72.9043 25.8027 72.867 25.7067 72.867 25.6C72.867 25.4827 72.9043 25.3813 72.979 25.296C73.0537 25.2107 73.1497 25.168 73.267 25.168H73.667V16.64ZM77.0866 19.136H76.6706C76.5426 19.136 76.4413 19.0987 76.3666 19.024C76.292 18.9387 76.2546 18.8427 76.2546 18.736C76.2546 18.4587 76.3933 18.32 76.6706 18.32H77.4706C77.8013 18.32 77.972 18.464 77.9826 18.752V25.168H78.3826C78.5106 25.168 78.6066 25.2107 78.6706 25.296C78.7453 25.3813 78.7826 25.4773 78.7826 25.584C78.7826 25.8613 78.6493 26 78.3826 26H76.6866C76.58 26 76.484 25.9627 76.3986 25.888C76.324 25.8027 76.2866 25.7067 76.2866 25.6C76.2866 25.4933 76.324 25.3973 76.3986 25.312C76.484 25.216 76.58 25.168 76.6866 25.168L77.0866 25.152V19.136ZM77.3266 15.84C77.54 15.84 77.716 15.9093 77.8546 16.048C78.004 16.1867 78.0786 16.3573 78.0786 16.56C78.0786 16.752 78.004 16.9173 77.8546 17.056C77.716 17.1947 77.54 17.264 77.3266 17.264C77.124 17.264 76.948 17.1947 76.7986 17.056C76.66 16.9173 76.5906 16.752 76.5906 16.56C76.5906 16.3573 76.66 16.1867 76.7986 16.048C76.9373 15.9093 77.1133 15.84 77.3266 15.84ZM43.38 41.92V55.518C43.38 55.726 43.8047 55.83 44.654 55.83C45.5207 55.83 46.4133 55.7 47.332 55.44C48.268 55.1627 49.126 54.764 49.906 54.244C50.7033 53.7067 51.336 52.9787 51.804 52.06C52.272 51.124 52.506 49.9627 52.506 48.576C52.506 47.1893 52.116 45.9327 51.336 44.806C49.8627 42.674 47.592 41.608 44.524 41.608C43.7613 41.608 43.38 41.712 43.38 41.92ZM41.898 41.79H41.3C40.8667 41.79 40.65 41.5647 40.65 41.114C40.65 40.646 40.858 40.412 41.274 40.412H44.368C47.1587 40.4293 49.4467 41.1747 51.232 42.648C53.0347 44.104 53.936 46.158 53.936 48.81C53.936 51.462 53.0433 53.49 51.258 54.894C49.49 56.298 47.15 57 44.238 57H41.274C40.858 57 40.65 56.7747 40.65 56.324C40.65 55.8733 40.858 55.648 41.274 55.648H41.898V41.79ZM57.6483 45.69V55.648H58.1423C58.3503 55.648 58.5063 55.7173 58.6103 55.856C58.7316 55.9773 58.7923 56.1333 58.7923 56.324C58.7923 56.7747 58.5756 57 58.1423 57H55.6723C55.2216 57 54.9963 56.7747 54.9963 56.324C54.9963 55.8733 55.2216 55.648 55.6723 55.648H56.1923V45.872H55.6723C55.447 45.872 55.2736 45.8027 55.1523 45.664C55.031 45.5253 54.9703 45.3693 54.9703 45.196C54.9703 45.0053 55.031 44.8493 55.1523 44.728C55.2736 44.5893 55.447 44.52 55.6723 44.52H60.4823C61.3663 44.52 62.0336 44.7107 62.4843 45.092C62.935 45.456 63.1603 45.924 63.1603 46.496C63.1603 46.7907 63.091 47.0593 62.9523 47.302C62.8136 47.5273 62.5883 47.64 62.2763 47.64C61.9643 47.64 61.6783 47.5013 61.4183 47.224C61.1756 46.9293 61.0456 46.626 61.0283 46.314C61.0283 45.9847 61.0456 45.7767 61.0803 45.69H57.6483ZM71.7592 48.368C71.6899 47.6747 71.3779 47.0073 70.8232 46.366C70.2685 45.7247 69.5752 45.404 68.7432 45.404C67.9285 45.404 67.2525 45.7073 66.7152 46.314C66.1779 46.9207 65.8052 47.6053 65.5972 48.368H71.7592ZM69.0292 57.26C67.4519 57.26 66.1865 56.6447 65.2332 55.414C64.2799 54.1833 63.8032 52.6147 63.8032 50.708C63.8032 48.8013 64.2539 47.25 65.1552 46.054C66.0739 44.858 67.2785 44.26 68.7692 44.26C69.5319 44.26 70.2165 44.4333 70.8232 44.78C71.4299 45.1093 71.8979 45.5253 72.2272 46.028C72.9205 47.0507 73.2672 48.0213 73.2672 48.94C73.2672 49.4253 73.0419 49.668 72.5912 49.668H65.3112C65.2765 49.8933 65.2592 50.214 65.2592 50.63C65.2592 52.2247 65.6145 53.5333 66.3252 54.556C67.0532 55.5787 67.9545 56.09 69.0292 56.09C69.4972 56.09 69.9219 55.9687 70.3032 55.726C70.6845 55.466 70.9532 55.2233 71.1092 54.998C71.2652 54.7553 71.4385 54.4347 71.6292 54.036C71.8372 53.6373 72.1145 53.438 72.4612 53.438C72.9812 53.438 73.2412 53.672 73.2412 54.14C73.2412 54.7467 72.8512 55.4227 72.0712 56.168C71.3085 56.896 70.2945 57.26 69.0292 57.26ZM78.1497 44.208C79.6404 44.208 80.7931 44.6933 81.6077 45.664C82.4397 46.6347 82.8557 47.874 82.8557 49.382C82.8557 51.774 82.9424 53.3947 83.1157 54.244C83.2891 55.076 83.6184 55.6653 84.1037 56.012C84.3984 56.1507 84.5457 56.3413 84.5457 56.584C84.5457 57.0347 84.3377 57.26 83.9217 57.26C83.5057 57.26 83.1071 57.0693 82.7257 56.688C82.3617 56.2893 82.0671 55.804 81.8417 55.232C81.5471 55.804 81.0704 56.2893 80.4117 56.688C79.7704 57.0693 78.9991 57.26 78.0977 57.26C76.7804 57.26 75.7057 56.8527 74.8737 56.038C74.0591 55.206 73.6517 54.1573 73.6517 52.892C73.6517 51.6093 74.0851 50.5173 74.9517 49.616C75.8184 48.7147 76.8931 48.264 78.1757 48.264C79.4757 48.264 80.5591 48.6887 81.4257 49.538C81.4257 48.3247 81.1657 47.3107 80.6457 46.496C80.1257 45.664 79.3284 45.248 78.2537 45.248C77.1791 45.248 76.5031 45.5427 76.2257 46.132C76.3817 46.496 76.4597 46.7993 76.4597 47.042C76.4597 47.2847 76.3557 47.5447 76.1477 47.822C75.9397 48.0993 75.6797 48.238 75.3677 48.238C75.0731 48.238 74.8391 48.108 74.6657 47.848C74.4924 47.588 74.4057 47.2847 74.4057 46.938C74.4057 46.21 74.7611 45.5773 75.4717 45.04C76.1997 44.4853 77.0924 44.208 78.1497 44.208ZM75.0817 52.762C75.0817 53.7153 75.4024 54.5127 76.0437 55.154C76.6851 55.7953 77.4477 56.116 78.3317 56.116C79.2331 56.116 79.9871 55.8127 80.5937 55.206C81.2004 54.582 81.5037 53.828 81.5037 52.944V52.71C81.5037 51.774 81.1917 51.0027 80.5677 50.396C79.9437 49.7893 79.1724 49.486 78.2537 49.486C77.3524 49.486 76.5984 49.798 75.9917 50.422C75.3851 51.0287 75.0817 51.8087 75.0817 52.762ZM100.811 55.648H101.409C101.6 55.648 101.747 55.7173 101.851 55.856C101.955 55.9947 102.007 56.1507 102.007 56.324C102.007 56.4973 101.955 56.6533 101.851 56.792C101.747 56.9307 101.6 57 101.409 57H98.9132C98.7225 57 98.5752 56.9307 98.4712 56.792C98.3672 56.6533 98.3152 56.4973 98.3152 56.324C98.3152 56.1507 98.3672 55.9947 98.4712 55.856C98.5752 55.7173 98.7225 55.648 98.9132 55.648H99.3552V48.784C99.3552 47.7093 99.2425 46.912 99.0172 46.392C98.7918 45.8547 98.3325 45.586 97.6392 45.586C96.9632 45.586 96.3738 45.872 95.8712 46.444C94.9352 47.484 94.4672 48.7667 94.4672 50.292V55.648H94.9872C95.1952 55.648 95.3512 55.7173 95.4552 55.856C95.5765 55.9947 95.6372 56.1593 95.6372 56.35C95.6372 56.5233 95.5765 56.6793 95.4552 56.818C95.3512 56.9393 95.1952 57 94.9872 57H92.5172C92.0665 57 91.8412 56.7747 91.8412 56.324C91.8412 55.8733 92.0665 55.648 92.5172 55.648H93.0372V48.602C93.0372 48.03 93.0025 47.5447 92.9332 47.146C92.8638 46.7473 92.6905 46.392 92.4132 46.08C92.1358 45.7507 91.7545 45.586 91.2692 45.586C90.3158 45.586 89.5532 46.0887 88.9812 47.094C88.4265 48.0993 88.1492 49.148 88.1492 50.24V55.648H88.6692C88.8252 55.648 88.9638 55.726 89.0852 55.882C89.2238 56.0207 89.2932 56.1767 89.2932 56.35C89.2932 56.506 89.2325 56.6533 89.1112 56.792C88.9898 56.9307 88.8425 57 88.6692 57H86.0172C85.8092 57 85.6445 56.9307 85.5232 56.792C85.4018 56.6533 85.3412 56.4973 85.3412 56.324C85.3412 56.1507 85.4018 55.9947 85.5232 55.856C85.6445 55.7173 85.8092 55.648 86.0172 55.648H86.6932V45.872H85.7832C85.6098 45.872 85.4625 45.8113 85.3412 45.69C85.2372 45.5687 85.1852 45.404 85.1852 45.196C85.1852 44.9707 85.2458 44.806 85.3672 44.702C85.5058 44.5807 85.6445 44.52 85.7832 44.52H87.7072C87.8805 44.52 87.9932 44.546 88.0452 44.598C88.1145 44.65 88.1492 44.7713 88.1492 44.962V46.652H88.2012C88.9638 45.1267 90.0472 44.364 91.4512 44.364C92.8725 44.364 93.7998 45.1787 94.2332 46.808C95.2038 45.1787 96.3998 44.364 97.8212 44.364C98.9132 44.364 99.6845 44.7627 100.135 45.56C100.586 46.34 100.811 47.2933 100.811 48.42V55.648ZM105.264 46.574C105.264 47.198 105.888 47.9693 107.136 48.888L107.994 49.538C108.479 49.8847 108.861 50.188 109.138 50.448C109.433 50.6907 109.736 51.098 110.048 51.67C110.377 52.2247 110.542 52.814 110.542 53.438C110.542 54.4087 110.221 55.2927 109.58 56.09C108.956 56.87 108.072 57.26 106.928 57.26C105.784 57.26 104.848 56.9913 104.12 56.454C103.409 55.8993 103.054 55.1973 103.054 54.348C103.054 53.828 103.193 53.386 103.47 53.022C103.747 52.6407 104.042 52.45 104.354 52.45C104.666 52.45 104.9 52.554 105.056 52.762C105.229 52.9527 105.316 53.204 105.316 53.516C105.316 54.14 105.108 54.608 104.692 54.92C104.727 55.2667 104.943 55.5613 105.342 55.804C105.758 56.0467 106.295 56.168 106.954 56.168C107.63 56.168 108.176 55.9253 108.592 55.44C109.008 54.9547 109.216 54.4433 109.216 53.906C109.216 53.3513 109.086 52.8747 108.826 52.476C108.566 52.0773 108.306 51.774 108.046 51.566C107.786 51.358 107.37 51.046 106.798 50.63L106.33 50.292C105.498 49.7027 104.874 49.1653 104.458 48.68C104.042 48.1773 103.834 47.5707 103.834 46.86C103.834 46.132 104.094 45.5253 104.614 45.04C105.134 44.5547 105.775 44.312 106.538 44.312C107.301 44.312 107.985 44.5287 108.592 44.962C109.199 45.3953 109.502 45.9327 109.502 46.574C109.502 46.8687 109.424 47.12 109.268 47.328C109.129 47.5187 108.921 47.614 108.644 47.614C108.367 47.614 108.089 47.458 107.812 47.146C107.552 46.8167 107.422 46.5133 107.422 46.236C107.422 45.9413 107.465 45.69 107.552 45.482C107.396 45.3607 107.084 45.3 106.616 45.3C106.165 45.3 105.827 45.4387 105.602 45.716C105.377 45.976 105.264 46.262 105.264 46.574Z" fill="#14323E"/>
<path d="M13.2375 4.79645C13.1604 4.79558 13.0799 4.80324 12.9949 4.82106C12.6123 4.90167 12.4081 5.14819 12.2414 5.39528C12.0747 5.64237 11.9443 5.93291 11.8289 6.26599C11.5982 6.93214 11.4377 7.7697 11.3906 8.66013C11.3023 10.3313 11.6211 12.232 12.9457 13.2867L13.0453 13.7929C10.8102 14.6512 9.28992 16.3063 8.22773 18.3082C7.97988 18.7753 7.75535 19.2623 7.54453 19.7601L2.16328 18.607C2.14369 18.6023 2.12366 18.5995 2.10352 18.5988C2.02839 18.5968 1.95524 18.623 1.89855 18.6724C1.84185 18.7217 1.80573 18.7905 1.79734 18.8652C1.78894 18.9399 1.80888 19.015 1.8532 19.0757C1.89753 19.1364 1.96302 19.1782 2.03672 19.1929L7.31484 20.3238C7.13141 20.7896 6.9579 21.262 6.79453 21.7429L0.907031 21.6C0.897271 21.5995 0.887494 21.5995 0.877734 21.6C0.798175 21.602 0.72268 21.6355 0.667854 21.6932C0.613029 21.7509 0.583364 21.828 0.585384 21.9076C0.587404 21.9871 0.620944 22.0626 0.678627 22.1175C0.736309 22.1723 0.813409 22.202 0.892969 22.2L6.60352 22.3383C6.44044 22.8407 6.27995 23.344 6.12656 23.8511L0.857812 24.6035C0.817002 24.6068 0.777296 24.6184 0.741138 24.6376C0.704979 24.6568 0.673134 24.6832 0.647563 24.7152C0.621991 24.7471 0.603234 24.784 0.592447 24.8235C0.58166 24.863 0.57907 24.9043 0.584838 24.9448C0.590605 24.9853 0.604608 25.0243 0.625984 25.0592C0.64736 25.0941 0.675657 25.1243 0.709132 25.1479C0.742607 25.1714 0.780553 25.1879 0.820633 25.1963C0.860713 25.2046 0.902081 25.2047 0.942187 25.1965L5.93555 24.4828C5.84905 24.7713 5.76209 25.0608 5.67539 25.3476C3.28469 27.8243 0 33.5391 0 43.609C0 45.0251 0.500159 46.0156 1.22812 46.5879C1.83789 47.0672 2.53045 47.2321 3.16289 47.3261C5.14771 54.1363 9.22617 57.4699 9.22617 57.4699C9.33248 57.5543 9.46426 57.6001 9.6 57.6H19.8H30C30.1357 57.6001 30.2675 57.5543 30.3738 57.4699C30.3738 57.4699 34.4523 54.1363 36.4371 47.3261C37.0695 47.2321 37.7621 47.0672 38.3719 46.5879C39.0998 46.0156 39.6 45.0251 39.6 43.609C39.6 33.5391 36.3153 27.8243 33.9246 25.3476C33.8379 25.0608 33.7509 24.7713 33.6645 24.4828L38.6578 25.1965C38.6979 25.2047 38.7393 25.2046 38.7794 25.1963C38.8194 25.1879 38.8574 25.1714 38.8909 25.1479C38.9243 25.1243 38.9526 25.0941 38.974 25.0592C38.9954 25.0243 39.0094 24.9853 39.0152 24.9448C39.0209 24.9043 39.0183 24.863 39.0076 24.8235C38.9968 24.784 38.978 24.7471 38.9524 24.7152C38.9269 24.6832 38.895 24.6568 38.8589 24.6376C38.8227 24.6184 38.783 24.6068 38.7422 24.6035L33.4734 23.8511C33.32 23.344 33.1596 22.8407 32.9965 22.3383L38.707 22.2C38.7866 22.1981 38.8621 22.1647 38.917 22.1071C38.972 22.0495 39.0018 21.9725 38.9999 21.8929C38.998 21.8134 38.9647 21.7378 38.9071 21.6829C38.8495 21.628 38.7725 21.5981 38.693 21.6L32.8055 21.7429C32.6421 21.262 32.4686 20.7896 32.2852 20.3238L37.5633 19.1929C37.6354 19.1787 37.6997 19.1386 37.7442 19.0801C37.7886 19.0216 37.81 18.9488 37.8044 18.8756C37.7988 18.8023 37.7664 18.7337 37.7136 18.6827C37.6607 18.6317 37.591 18.6018 37.5176 18.5988C37.4904 18.5979 37.4632 18.6006 37.4367 18.607L32.0555 19.7601C31.8446 19.2623 31.6201 18.7753 31.3723 18.3082C30.3101 16.3063 28.7898 14.6512 26.5547 13.7929L26.6543 13.2867C27.9789 12.2319 28.2977 10.3314 28.2094 8.66013C28.1623 7.76966 28.0018 6.93213 27.7711 6.26599C27.6557 5.93291 27.5253 5.64236 27.3586 5.39528C27.1919 5.14821 26.9878 4.90147 26.6051 4.82106C26.2652 4.74955 25.9958 4.84581 25.7379 4.96755C25.48 5.08928 25.2276 5.26125 24.968 5.47614C24.4487 5.90592 23.9082 6.51001 23.4375 7.23513C22.5412 8.61592 21.9156 10.4759 22.4672 12.3023L22.3078 12.7172C21.3971 12.6349 20.514 12.6 19.8 12.6C19.086 12.6 18.2029 12.6349 17.2922 12.7172L17.1328 12.3023C17.6844 10.4759 17.0588 8.61585 16.1625 7.23513C15.6918 6.51005 15.1512 5.90593 14.632 5.47614C14.3724 5.26125 14.1199 5.08931 13.8621 4.96755C13.6687 4.87622 13.4688 4.79909 13.2375 4.79645ZM13.2715 6.02692C13.2958 6.03369 13.3118 6.0352 13.3488 6.0527C13.4778 6.11364 13.664 6.23292 13.8668 6.40075C14.2723 6.73641 14.7496 7.26204 15.1559 7.88786C15.9684 9.13951 16.4773 10.7474 15.9527 12.1605C15.9018 12.2975 15.9027 12.4483 15.9551 12.5847L16.3266 13.5504C16.3747 13.6753 16.4633 13.7806 16.5782 13.8494C16.6931 13.9182 16.8277 13.9466 16.9605 13.93C17.9919 13.8023 18.9512 13.8 19.8 13.8C20.6488 13.8 21.6081 13.8023 22.6395 13.93C22.7723 13.9466 22.9069 13.9182 23.0218 13.8494C23.1367 13.7806 23.2253 13.6753 23.2734 13.5504L23.6449 12.5847C23.6973 12.4483 23.6982 12.2975 23.6473 12.1605C23.1227 10.7474 23.6316 9.13958 24.4441 7.88786C24.8504 7.262 25.3277 6.73637 25.7332 6.40075C25.9359 6.23294 26.121 6.11359 26.25 6.0527C26.2875 6.03498 26.3039 6.03367 26.3285 6.02692C26.3419 6.04091 26.3461 6.04076 26.3637 6.06677C26.4426 6.18374 26.5461 6.39358 26.6379 6.65856C26.8215 7.18852 26.9691 7.93987 27.0105 8.72341C27.0934 10.2905 26.713 11.9049 25.7742 12.5039C25.7059 12.5474 25.6471 12.6043 25.6014 12.6712C25.5557 12.7381 25.524 12.8135 25.5082 12.8929L25.2844 14.0285C25.2558 14.174 25.2822 14.325 25.3584 14.4522C25.4345 14.5794 25.5551 14.674 25.6969 14.7175C27.886 15.3917 29.2571 16.8809 30.3129 18.8707C30.5067 19.236 30.6847 19.622 30.8566 20.0168L29.0367 20.407C28.9967 20.4138 28.9586 20.4286 28.9245 20.4505C28.8904 20.4724 28.8611 20.501 28.8383 20.5346C28.8156 20.5682 28.7999 20.606 28.7922 20.6458C28.7845 20.6856 28.785 20.7265 28.7935 20.7662C28.8021 20.8058 28.8186 20.8433 28.842 20.8763C28.8655 20.9094 28.8954 20.9374 28.9299 20.9586C28.9645 20.9798 29.003 20.9938 29.0431 20.9997C29.0832 21.0056 29.1241 21.0033 29.1633 20.9929L31.0945 20.5793C31.2504 20.9672 31.3983 21.3668 31.541 21.7734L29.9578 21.8121C29.8783 21.814 29.8027 21.8474 29.7478 21.905C29.6929 21.9625 29.6631 22.0396 29.665 22.1191C29.6668 22.1987 29.7002 22.2742 29.7578 22.3291C29.8153 22.3841 29.8923 22.4139 29.9719 22.4121L31.7437 22.3687C31.8855 22.7938 32.0237 23.226 32.1586 23.6625L30.3422 23.4035C30.3224 23.4003 30.3024 23.3991 30.2824 23.4C30.2082 23.4044 30.1383 23.4363 30.0863 23.4893C30.0342 23.5423 30.0037 23.6128 30.0006 23.6871C29.9976 23.7614 30.0222 23.8341 30.0697 23.8913C30.1172 23.9484 30.1842 23.9859 30.2578 23.9965L32.3543 24.2965C32.505 24.7936 32.6551 25.2928 32.8066 25.7929C32.8352 25.8867 32.8863 25.972 32.9555 26.0414C35.075 28.1721 38.4 33.6471 38.4 43.609C38.4 44.7668 38.0689 45.3004 37.6312 45.6445C37.1936 45.9886 36.5608 46.1364 35.9355 46.2035C35.8157 46.2164 35.7025 46.2651 35.6107 46.3433C35.519 46.4215 35.4529 46.5255 35.4211 46.6418C33.6783 53.0313 30.1602 56.0743 29.768 56.4H19.8H9.83203C9.43977 56.0743 5.92171 53.0313 4.17891 46.6418C4.1471 46.5255 4.08101 46.4215 3.98925 46.3433C3.89749 46.2651 3.78431 46.2164 3.66445 46.2035C3.03923 46.1364 2.40643 45.9886 1.96875 45.6445C1.53107 45.3004 1.2 44.7668 1.2 43.609C1.2 33.6471 4.52502 28.1721 6.64453 26.0414C6.71368 25.972 6.76478 25.8867 6.79336 25.7929C6.94492 25.2928 7.09499 24.7936 7.2457 24.2965L9.34219 23.9965C9.41756 23.9869 9.48651 23.9491 9.5351 23.8907C9.5837 23.8323 9.60833 23.7576 9.60401 23.6818C9.5997 23.6059 9.56677 23.5345 9.51186 23.482C9.45696 23.4295 9.38418 23.3997 9.3082 23.3988C9.2913 23.3989 9.27445 23.4005 9.25781 23.4035L7.44141 23.6625C7.57633 23.226 7.71449 22.7938 7.85625 22.3687L9.62812 22.4121C9.70767 22.4139 9.78469 22.3841 9.84224 22.3291C9.8998 22.2742 9.93318 22.1987 9.93504 22.1191C9.93691 22.0396 9.9071 21.9625 9.85219 21.905C9.79727 21.8474 9.72173 21.814 9.64219 21.8121L8.05898 21.7734C8.20174 21.3668 8.34955 20.9672 8.50547 20.5793L10.4367 20.9929C10.4759 21.0033 10.5168 21.0056 10.5569 20.9997C10.597 20.9938 10.6355 20.9798 10.6701 20.9586C10.7046 20.9374 10.7345 20.9094 10.758 20.8763C10.7814 20.8433 10.7979 20.8058 10.8065 20.7662C10.815 20.7265 10.8155 20.6856 10.8078 20.6458C10.8001 20.606 10.7844 20.5682 10.7617 20.5346C10.7389 20.501 10.7096 20.4724 10.6755 20.4505C10.6414 20.4286 10.6033 20.4138 10.5633 20.407L8.74336 20.0168C8.91528 19.622 9.09328 19.236 9.28711 18.8707C10.3429 16.8809 11.714 15.3917 13.9031 14.7175C14.0449 14.674 14.1655 14.5794 14.2416 14.4522C14.3178 14.325 14.3442 14.174 14.3156 14.0285L14.0918 12.8929C14.076 12.8135 14.0443 12.7381 13.9986 12.6712C13.9529 12.6043 13.8941 12.5474 13.8258 12.5039C12.887 11.9049 12.5066 10.2904 12.5895 8.72341C12.6309 7.93991 12.7785 7.18856 12.9621 6.65856C13.0539 6.39356 13.1574 6.18381 13.2363 6.06677C13.2538 6.04094 13.2582 6.0409 13.2715 6.02692ZM13.8 16.2C13.025 16.2 12.4062 16.5014 12.0012 16.957C11.5962 17.4126 11.4 18.0083 11.4 18.6C11.4 19.1916 11.5962 19.7873 12.0012 20.2429C12.4062 20.6985 13.025 21 13.8 21C14.575 21 15.1938 20.6985 15.5988 20.2429C16.0038 19.7873 16.2 19.1916 16.2 18.6C16.2 18.0083 16.0038 17.4126 15.5988 16.957C15.1938 16.5014 14.575 16.2 13.8 16.2ZM25.8 16.2C25.025 16.2 24.4062 16.5014 24.0012 16.957C23.5962 17.4126 23.4 18.0083 23.4 18.6C23.4 19.1916 23.5962 19.7873 24.0012 20.2429C24.4062 20.6985 25.025 21 25.8 21C26.575 21 27.1938 20.6985 27.5988 20.2429C28.0038 19.7873 28.2 19.1916 28.2 18.6C28.2 18.0083 28.0038 17.4126 27.5988 16.957C27.1938 16.5014 26.575 16.2 25.8 16.2ZM13.8 16.8C14.425 16.8 14.8562 17.0235 15.1512 17.3554C15.4462 17.6873 15.6 18.1416 15.6 18.6C15.6 19.0583 15.4462 19.5126 15.1512 19.8445C14.8562 20.1764 14.425 20.4 13.8 20.4C13.175 20.4 12.7438 20.1764 12.4488 19.8445C12.1538 19.5126 12 19.0583 12 18.6C12 18.1416 12.1538 17.6873 12.4488 17.3554C12.7438 17.0235 13.175 16.8 13.8 16.8ZM25.8 16.8C26.425 16.8 26.8562 17.0235 27.1512 17.3554C27.4462 17.6873 27.6 18.1416 27.6 18.6C27.6 19.0583 27.4462 19.5126 27.1512 19.8445C26.8562 20.1764 26.425 20.4 25.8 20.4C25.175 20.4 24.7438 20.1764 24.4488 19.8445C24.1538 19.5126 24 19.0583 24 18.6C24 18.1416 24.1538 17.6873 24.4488 17.3554C24.7438 17.0235 25.175 16.8 25.8 16.8ZM13.8 17.7C13.5613 17.7 13.3324 17.7948 13.1636 17.9636C12.9948 18.1324 12.9 18.3613 12.9 18.6C12.9 18.8387 12.9948 19.0676 13.1636 19.2364C13.3324 19.4051 13.5613 19.5 13.8 19.5C14.0387 19.5 14.2676 19.4051 14.4364 19.2364C14.6052 19.0676 14.7 18.8387 14.7 18.6C14.7 18.3613 14.6052 18.1324 14.4364 17.9636C14.2676 17.7948 14.0387 17.7 13.8 17.7ZM25.8 17.7C25.5613 17.7 25.3324 17.7948 25.1636 17.9636C24.9948 18.1324 24.9 18.3613 24.9 18.6C24.9 18.8387 24.9948 19.0676 25.1636 19.2364C25.3324 19.4051 25.5613 19.5 25.8 19.5C26.0387 19.5 26.2676 19.4051 26.4364 19.2364C26.6052 19.0676 26.7 18.8387 26.7 18.6C26.7 18.3613 26.6052 18.1324 26.4364 17.9636C26.2676 17.7948 26.0387 17.7 25.8 17.7ZM19.8 18.6C18.8058 18.6 18 18.9103 18 19.2925C18 19.6747 18.8058 20.4 19.8 20.4C20.7942 20.4 21.6 19.6747 21.6 19.2925C21.6 18.9103 20.7942 18.6 19.8 18.6ZM19.8 24.6C15.0828 24.6 11.3181 26.1926 8.7457 28.8738C6.1733 31.555 4.8 35.3112 4.8 39.6C4.8 48.2055 11.5126 55.2 19.8 55.2C28.0874 55.2 34.8 48.2055 34.8 39.6C34.8 35.3112 33.4267 31.555 30.8543 28.8738C28.2819 26.1926 24.5172 24.6 19.8 24.6ZM19.8 25.2C24.3828 25.2 27.9681 26.7323 30.4207 29.2886C32.8733 31.845 34.2 35.439 34.2 39.6C34.2 47.894 27.7498 54.6 19.8 54.6C11.8502 54.6 5.4 47.894 5.4 39.6C5.4 35.439 6.7267 31.845 9.1793 29.2886C11.6319 26.7323 15.2172 25.2 19.8 25.2ZM19.8 27.6703C18.5526 27.6703 17.5406 29.1982 17.5406 29.7808C17.5406 30.3634 18.5526 29.0425 19.8 29.0425C21.0474 29.0425 22.0594 30.3634 22.0594 29.7808C22.0594 29.1982 21.0474 27.6703 19.8 27.6703ZM13.5117 28.8316C13.3698 28.828 13.2232 28.844 13.0723 28.8832C11.8645 29.1964 10.8579 31.0159 11.0145 31.6195C11.1711 32.2231 11.9043 30.7022 13.1121 30.389C14.3199 30.0758 15.5445 30.9633 15.3879 30.3597C15.2509 29.8316 14.5051 28.8572 13.5117 28.8316ZM26.0883 28.8316C25.0949 28.8572 24.3491 29.8316 24.2121 30.3597C24.0555 30.9633 25.2801 30.0758 26.4879 30.389C27.6957 30.7022 28.4289 32.2231 28.5855 31.6195C28.7421 31.0159 27.7355 29.1964 26.5277 28.8832C26.3768 28.844 26.2302 28.828 26.0883 28.8316ZM16.677 32.4117C15.4482 32.5005 14.5613 34.0769 14.6027 34.6511C14.6441 35.2247 15.5454 33.8517 16.7742 33.7629C18.0024 33.6741 19.0926 34.9031 19.0512 34.3289C19.0098 33.7547 17.9052 32.3223 16.677 32.4117ZM22.923 32.4117C21.6948 32.3223 20.5902 33.7547 20.5488 34.3289C20.5074 34.9031 21.5976 33.6741 22.8258 33.7629C24.0546 33.8517 24.9559 35.2247 24.9973 34.6511C25.0387 34.0769 24.1518 32.5005 22.923 32.4117ZM10.7684 33.7101C10.6177 33.7137 10.4672 33.7374 10.3195 33.7875C9.13813 34.1877 8.39387 35.9284 8.58047 36.4804C8.76707 37.0324 9.37837 35.5189 10.5598 35.1187C11.7412 34.7185 13.2378 35.7223 13.0512 35.1703C12.8879 34.6873 11.8233 33.6852 10.7684 33.7101ZM28.8316 33.7101C27.7767 33.6852 26.7121 34.6873 26.5488 35.1703C26.3622 35.7223 27.8588 34.7185 29.0402 35.1187C30.2216 35.5189 30.8329 37.0324 31.0195 36.4804C31.2061 35.9284 30.4619 34.1877 29.2805 33.7875C29.1328 33.7374 28.9823 33.7137 28.8316 33.7101Z" fill="#14323E"/>
</svg>
